<svg width="69" height="64" viewBox="0 0 69 64" fill="none" xmlns="http://www.w3.org/2000/svg">
<path d="M11.5001 26.4499H26.4501C27.0861 26.4499 27.6001 25.9347 27.6001 25.2999C27.6001 24.6651 27.0861 24.1499 26.4501 24.1499H11.5001C10.8641 24.1499 10.3501 24.6651 10.3501 25.2999C10.3501 25.9347 10.8641 26.4499 11.5001 26.4499Z" fill="#14BBEA"/>
<path d="M41.4001 31.05H11.5001C10.8641 31.05 10.3501 31.5652 10.3501 32.2C10.3501 32.8348 10.8641 33.35 11.5001 33.35H41.4001C42.036 33.35 42.5501 32.8348 42.5501 32.2C42.5501 31.5652 42.036 31.05 41.4001 31.05Z" fill="#14BBEA"/>
<path d="M41.4001 37.95H11.5001C10.8641 37.95 10.3501 38.4652 10.3501 39.0999C10.3501 39.7347 10.8641 40.2499 11.5001 40.2499H41.4001C42.036 40.2499 42.5501 39.7347 42.5501 39.0999C42.5501 38.4652 42.036 37.95 41.4001 37.95Z" fill="#14BBEA"/>
<path d="M62.1828 0.0805002L22.9195 0C19.159 0 16.1 3.059 16.1 6.8195V12.7121L6.8195 12.7316C3.059 12.7316 0 15.7906 0 19.5511V43.8633C0 47.6238 3.059 50.6816 6.8195 50.6816H13.8V62.1816C13.8 62.6566 14.0921 63.0833 14.536 63.2546C14.6706 63.3064 14.8109 63.3316 14.95 63.3316C15.2674 63.3316 15.579 63.1994 15.801 62.9556L26.9606 50.6793L46.0805 50.6011C49.841 50.6011 52.9 47.5421 52.9 43.7828V43.6528L58.949 50.3067C59.1709 50.5505 59.4826 50.6828 59.8 50.6828C59.9391 50.6828 60.0794 50.6575 60.214 50.6058C60.6579 50.4344 60.95 50.0077 60.95 49.5328V38.0328H62.1805C65.941 38.0328 69 34.9738 69 31.2144V6.9C69 3.14065 65.9421 0.0816502 62.1828 0.0805002ZM50.6 43.7816C50.6 46.2737 48.5726 48.3 46.0759 48.3L26.4454 48.3805C26.1234 48.3816 25.8152 48.5185 25.599 48.7565L16.1 59.2066V49.5305C16.1 48.8957 15.5859 48.3805 14.95 48.3805H6.8195C4.32745 48.3805 2.3 46.353 2.3 43.8621V19.55C2.3 17.0579 4.32745 15.0305 6.8218 15.0305L17.25 15.0086C17.2512 15.0086 17.2512 15.0086 17.2523 15.0086L46.0805 14.9488C48.5725 14.9488 50.6 16.9763 50.6 19.4683V40.6755V43.7816ZM66.7 31.2122C66.7 33.7042 64.6725 35.7305 62.1805 35.7305H59.8C59.164 35.7305 58.65 36.2457 58.65 36.8805V46.5566L52.9 40.2316V19.4695C52.9 15.709 49.841 12.65 46.0782 12.65L18.4 12.7063V6.81835C18.4 4.3263 20.4274 2.29885 22.9172 2.29885L62.1793 2.37935C62.1805 2.37935 62.1805 2.37935 62.1816 2.37935C64.6737 2.37935 66.7011 4.4068 66.7011 6.89885V31.2122H66.7Z" fill="#14BBEA"/>
</svg>
