<svg width="60" height="60" viewBox="0 0 60 60" fill="none" xmlns="http://www.w3.org/2000/svg">
<path d="M58.0938 57.125H53.25V28.0625C53.25 27.8056 53.1479 27.5592 52.9663 27.3775C52.7846 27.1958 52.5382 27.0938 52.2812 27.0938H46.4688C46.2118 27.0938 45.9654 27.1958 45.7837 27.3775C45.6021 27.5592 45.5 27.8056 45.5 28.0625V57.125H43.5625V35.8125C43.5625 35.5556 43.4604 35.3092 43.2788 35.1275C43.0971 34.9458 42.8507 34.8438 42.5938 34.8438H36.7812C36.5243 34.8438 36.2779 34.9458 36.0962 35.1275C35.9146 35.3092 35.8125 35.5556 35.8125 35.8125V57.125H33.875V32.9062C33.875 32.6493 33.7729 32.4029 33.5913 32.2212C33.4096 32.0396 33.1632 31.9375 32.9062 31.9375H27.0938C26.8368 31.9375 26.5904 32.0396 26.4087 32.2212C26.2271 32.4029 26.125 32.6493 26.125 32.9062V57.125H24.1875V36.7812C24.1875 36.5243 24.0854 36.2779 23.9038 36.0962C23.7221 35.9146 23.4757 35.8125 23.2188 35.8125H17.4062C17.1493 35.8125 16.9029 35.9146 16.7212 36.0962C16.5396 36.2779 16.4375 36.5243 16.4375 36.7812V57.125H14.5V40.6562C14.5 40.3993 14.3979 40.1529 14.2163 39.9712C14.0346 39.7896 13.7882 39.6875 13.5312 39.6875H7.71875C7.46182 39.6875 7.21542 39.7896 7.03374 39.9712C6.85206 40.1529 6.75 40.3993 6.75 40.6562V57.125H1.90625C1.64932 57.125 1.40292 57.2271 1.22124 57.4087C1.03956 57.5904 0.9375 57.8368 0.9375 58.0938C0.9375 58.3507 1.03956 58.5971 1.22124 58.7788C1.40292 58.9604 1.64932 59.0625 1.90625 59.0625H58.0938C58.3507 59.0625 58.5971 58.9604 58.7788 58.7788C58.9604 58.5971 59.0625 58.3507 59.0625 58.0938C59.0625 57.8368 58.9604 57.5904 58.7788 57.4087C58.5971 57.2271 58.3507 57.125 58.0938 57.125ZM8.6875 57.125V41.625H12.5625V57.125H8.6875ZM18.375 57.125V37.75H22.25V57.125H18.375ZM28.0625 57.125V33.875H31.9375V57.125H28.0625ZM37.75 57.125V36.7812H41.625V57.125H37.75ZM47.4375 57.125V29.0312H51.3125V57.125H47.4375Z" fill="#14BBEA"/>
<path d="M3.8437 38.719C3.97474 38.719 4.10439 38.6923 4.22478 38.6405L8.48934 36.8129C8.88542 37.2433 9.40221 37.5441 9.97208 37.6759C10.542 37.8077 11.1383 37.7644 11.6832 37.5516C12.228 37.3389 12.6959 36.9666 13.0257 36.4834C13.3554 36.0003 13.5316 35.4289 13.5312 34.844C13.5312 34.8044 13.5297 34.7653 13.5282 34.726L18.1297 32.8854C18.5192 33.33 19.0349 33.6451 19.6082 33.7888C20.1814 33.9326 20.7849 33.898 21.3379 33.6897C21.891 33.4814 22.3674 33.1094 22.7034 32.6232C23.0395 32.1371 23.2193 31.56 23.2187 30.969C23.2187 30.9294 23.2173 30.8903 23.2157 30.851L27.8172 29.0104C28.1039 29.3378 28.4605 29.5965 28.8607 29.7673C29.2609 29.9382 29.6943 30.0168 30.129 29.9975C30.5637 29.9781 30.9885 29.8613 31.3719 29.6555C31.7553 29.4498 32.0875 29.1604 32.344 28.8089L36.7842 30.141C36.8045 30.5672 36.9184 30.9838 37.1178 31.3611C37.3173 31.7384 37.5973 32.0672 37.9382 32.324C38.279 32.5808 38.6722 32.7595 39.0899 32.8472C39.5075 32.9349 39.9394 32.9296 40.3547 32.8315C40.7701 32.7335 41.1587 32.5452 41.4931 32.28C41.8275 32.0149 42.0993 31.6793 42.2894 31.2972C42.4794 30.9151 42.583 30.4958 42.5927 30.0691C42.6024 29.6425 42.518 29.2189 42.3456 28.8285L47.7827 23.7112C48.3284 24.0695 48.9788 24.2335 49.6291 24.1768C50.2795 24.1201 50.8917 23.8459 51.367 23.3985C51.8424 22.9511 52.1531 22.3566 52.2492 21.7109C52.3452 21.0652 52.2209 20.406 51.8962 19.8396L55.1875 16.7423V17.4065C55.1875 17.6634 55.2895 17.9098 55.4712 18.0915C55.6529 18.2732 55.8993 18.3752 56.1562 18.3752C56.4131 18.3752 56.6595 18.2732 56.8412 18.0915C57.0229 17.9098 57.125 17.6634 57.125 17.4065V14.5002C57.125 14.2433 57.0229 13.9969 56.8412 13.8152C56.6595 13.6336 56.4131 13.5315 56.1562 13.5315H53.25C52.993 13.5315 52.7466 13.6336 52.5649 13.8152C52.3833 13.9969 52.2812 14.2433 52.2812 14.5002C52.2812 14.7572 52.3833 15.0036 52.5649 15.1853C52.7466 15.3669 52.993 15.469 53.25 15.469H53.7135L50.4188 18.5698C49.908 18.373 49.352 18.3244 48.8148 18.4297C48.2777 18.535 47.7812 18.7899 47.3825 19.1651C46.9839 19.5402 46.6993 20.0204 46.5617 20.5502C46.424 21.08 46.4388 21.6379 46.6043 22.1597L41.0175 27.4178C40.4023 27.0998 39.6935 27.0124 39.0195 27.1716C38.3454 27.3308 37.7506 27.7259 37.3426 28.2856L32.9023 26.9535C32.8633 26.1975 32.5309 25.4866 31.9757 24.9719C31.4205 24.4573 30.6865 24.1796 29.9297 24.1979C29.1729 24.2162 28.4531 24.529 27.9235 25.0699C27.3938 25.6108 27.0961 26.337 27.0937 27.094C27.0937 27.1336 27.0952 27.1728 27.0967 27.2119L22.4952 29.0526C22.1058 28.608 21.59 28.2928 21.0167 28.1491C20.4435 28.0054 19.84 28.04 19.287 28.2483C18.7339 28.4566 18.2575 28.8286 17.9215 29.3148C17.5854 29.8009 17.4057 30.378 17.4062 30.969C17.4062 31.0086 17.4077 31.0477 17.4092 31.0869L12.8077 32.9276C12.4183 32.483 11.9025 32.1678 11.3292 32.0241C10.756 31.8804 10.1525 31.915 9.59946 32.1233C9.04639 32.3316 8.57002 32.7036 8.23396 33.1898C7.89791 33.6759 7.71815 34.253 7.7187 34.844C7.7187 34.9074 7.72149 34.9702 7.72548 35.0327L3.46214 36.8597C3.257 36.9476 3.08849 37.1035 2.98507 37.3013C2.88166 37.499 2.84967 37.7264 2.89453 37.945C2.9394 38.1636 3.05835 38.36 3.23129 38.501C3.40423 38.642 3.62055 38.719 3.8437 38.719ZM49.375 20.3127C49.5666 20.3127 49.7539 20.3696 49.9132 20.476C50.0725 20.5825 50.1966 20.7338 50.27 20.9108C50.3433 21.0878 50.3625 21.2826 50.3251 21.4705C50.2877 21.6584 50.1954 21.831 50.06 21.9665C49.9245 22.102 49.7519 22.1943 49.5639 22.2316C49.376 22.269 49.1812 22.2498 49.0042 22.1765C48.8272 22.1032 48.6759 21.979 48.5695 21.8197C48.463 21.6604 48.4062 21.4731 48.4062 21.2815C48.4065 21.0247 48.5086 20.7784 48.6903 20.5968C48.8719 20.4152 49.1181 20.313 49.375 20.3127ZM39.6875 29.0315C39.8791 29.0315 40.0664 29.0883 40.2257 29.1948C40.385 29.3012 40.5091 29.4525 40.5825 29.6295C40.6558 29.8065 40.675 30.0013 40.6376 30.1892C40.6002 30.3772 40.5079 30.5498 40.3725 30.6853C40.237 30.8207 40.0644 30.913 39.8764 30.9504C39.6885 30.9878 39.4937 30.9686 39.3167 30.8953C39.1397 30.8219 38.9884 30.6978 38.882 30.5385C38.7755 30.3791 38.7187 30.1918 38.7187 30.0002C38.719 29.7434 38.8211 29.4972 39.0028 29.3156C39.1844 29.1339 39.4306 29.0318 39.6875 29.0315ZM30 26.1252C30.1916 26.1252 30.3789 26.1821 30.5382 26.2885C30.6975 26.395 30.8216 26.5463 30.895 26.7233C30.9683 26.9003 30.9875 27.0951 30.9501 27.283C30.9127 27.4709 30.8204 27.6435 30.685 27.779C30.5495 27.9145 30.3769 28.0068 30.1889 28.0441C30.001 28.0815 29.8062 28.0623 29.6292 27.989C29.4522 27.9157 29.3009 27.7915 29.1945 27.6322C29.088 27.4729 29.0312 27.2856 29.0312 27.094C29.0315 26.8372 29.1336 26.5909 29.3153 26.4093C29.4969 26.2277 29.7431 26.1255 30 26.1252ZM20.3125 30.0002C20.5041 30.0002 20.6914 30.0571 20.8507 30.1635C21.01 30.27 21.1341 30.4213 21.2075 30.5983C21.2808 30.7753 21.3 30.9701 21.2626 31.158C21.2252 31.3459 21.1329 31.5185 20.9975 31.654C20.862 31.7895 20.6894 31.8818 20.5014 31.9191C20.3135 31.9565 20.1187 31.9373 19.9417 31.864C19.7647 31.7907 19.6134 31.6665 19.507 31.5072C19.4005 31.3479 19.3437 31.1606 19.3437 30.969C19.344 30.7122 19.4461 30.4659 19.6278 30.2843C19.8094 30.1027 20.0556 30.0005 20.3125 30.0002ZM10.625 33.8752C10.8166 33.8752 11.0039 33.9321 11.1632 34.0385C11.3225 34.145 11.4466 34.2963 11.52 34.4733C11.5933 34.6503 11.6125 34.8451 11.5751 35.033C11.5377 35.2209 11.4454 35.3935 11.31 35.529C11.1745 35.6645 11.0019 35.7568 10.8139 35.7941C10.626 35.8315 10.4312 35.8123 10.2542 35.739C10.0772 35.6657 9.92591 35.5415 9.81947 35.3822C9.71302 35.2229 9.6562 35.0356 9.6562 34.844C9.65649 34.5872 9.75865 34.3409 9.94026 34.1593C10.1219 33.9777 10.3681 33.8755 10.625 33.8752Z" fill="#14BBEA"/>
<path d="M21.333 24.9325C21.531 25.0931 21.7842 25.1693 22.0379 25.1445C22.2916 25.1196 22.5253 24.9958 22.6884 24.7998C22.8514 24.6038 22.9306 24.3515 22.9088 24.0975C22.887 23.8435 22.766 23.6084 22.5719 23.443C21.7836 22.7875 21.0849 22.0311 20.4941 21.1932H24.7369C24.9053 21.966 25.1028 22.7338 25.3294 23.4964C25.3652 23.619 25.425 23.7332 25.5052 23.8326C25.5854 23.932 25.6844 24.0145 25.7966 24.0755C25.9088 24.1364 26.0319 24.1746 26.1589 24.1878C26.286 24.201 26.4143 24.189 26.5367 24.1524C26.659 24.1158 26.7729 24.0554 26.8718 23.9747C26.9707 23.8939 27.0527 23.7944 27.113 23.6818C27.1733 23.5693 27.2108 23.4459 27.2232 23.3188C27.2357 23.1917 27.2229 23.0634 27.1856 22.9413C27.0125 22.3622 26.858 21.7795 26.7223 21.1932H33.2772C33.1406 21.7791 32.9862 22.3618 32.8141 22.9413C32.7768 23.0634 32.764 23.1917 32.7764 23.3188C32.7889 23.4459 32.8264 23.5693 32.8867 23.6818C32.947 23.7944 33.0289 23.8939 33.1279 23.9747C33.2268 24.0554 33.3407 24.1158 33.463 24.1524C33.5853 24.189 33.7137 24.201 33.8407 24.1878C33.9677 24.1746 34.0909 24.1364 34.2031 24.0755C34.3153 24.0145 34.4143 23.932 34.4945 23.8326C34.5747 23.7332 34.6344 23.619 34.6703 23.4964C34.8982 22.7343 35.0957 21.9666 35.2629 21.1932H39.5091C39.0768 21.8034 38.5876 22.371 38.0478 22.8885C37.8625 23.0664 37.7553 23.3107 37.75 23.5676C37.7447 23.8245 37.8417 24.0729 38.0196 24.2583C38.1975 24.4437 38.4418 24.5508 38.6987 24.5561C38.9556 24.5614 39.2041 24.4645 39.3894 24.2865C40.714 23.0249 41.7673 21.5062 42.4848 19.8235C43.2024 18.1408 43.569 16.3294 43.5625 14.5001C43.5583 11.3572 42.4646 8.31297 40.4675 5.88609C38.4705 3.45921 35.6938 1.79983 32.6105 1.1907C32.5848 1.18476 32.5588 1.17968 32.5325 1.1758C29.5785 0.614055 26.5216 1.04991 23.8423 2.41485C21.1631 3.77979 19.0133 5.99641 17.7311 8.71626C16.4489 11.4361 16.107 14.5049 16.759 17.4403C17.411 20.3757 19.02 23.0112 21.333 24.9325ZM19.696 19.2557C19.5989 19.2556 19.5024 19.2702 19.4097 19.2988C18.8611 18.0886 18.5247 16.7931 18.415 15.4689H24.0311C24.0701 16.737 24.1858 18.0016 24.3776 19.2557H19.696ZM19.9877 8.59945H24.575C24.2643 10.2266 24.0828 11.8757 24.032 13.5314H18.4156C18.5595 11.7896 19.0971 10.1032 19.9877 8.59945ZM41.5843 13.5314H35.9685C35.9175 11.8756 35.7357 10.2265 35.425 8.59945H40.0126C40.9031 10.1033 41.4405 11.7896 41.5843 13.5314ZM34.0303 13.5314H25.97C26.0246 11.874 26.2189 10.2242 26.5506 8.59945H33.45C33.7817 10.2242 33.9758 11.874 34.0303 13.5314ZM26.3388 19.2557C26.1343 18.0027 26.011 16.7378 25.9697 15.4689H34.0306C33.9891 16.7378 33.8657 18.0027 33.6612 19.2557H26.3388ZM40.3039 19.2557H35.6227C35.8146 18.0016 35.9302 16.737 35.969 15.4689H41.585C41.4789 16.7937 41.1444 18.0902 40.5964 19.301C40.5018 19.2709 40.4032 19.2557 40.3039 19.2557ZM38.5774 6.66195H34.99C34.723 5.6244 34.4031 4.6012 34.0315 3.59635C35.7689 4.24251 37.3272 5.29341 38.5774 6.66195ZM31.7114 3.00129C32.216 4.1922 32.6416 5.41507 32.9854 6.66195H27.0155C27.3592 5.41505 27.7848 4.19217 28.2895 3.00129C29.424 2.83305 30.5771 2.83305 31.7116 3.00129H31.7114ZM25.9693 3.5961C25.5974 4.60099 25.2772 5.62429 25.01 6.66195H21.4225C22.6729 5.29321 24.2316 4.24221 25.9692 3.5961H25.9693Z" fill="#14BBEA"/>
</svg>
